<svg xmlns="http://www.w3.org/2000/svg"  viewBox="0 0 100 100" width="100px" height="100px"><path fill="#c7ede6" d="M87.215,56.71C88.35,54.555,89,52.105,89,49.5c0-6.621-4.159-12.257-10.001-14.478	C78.999,35.015,79,35.008,79,35c0-11.598-9.402-21-21-21c-9.784,0-17.981,6.701-20.313,15.757C36.211,29.272,34.638,29,33,29	c-7.692,0-14.023,5.793-14.89,13.252C12.906,43.353,9,47.969,9,53.5C9,59.851,14.149,65,20.5,65c0.177,0,0.352-0.012,0.526-0.022	C21.022,65.153,21,65.324,21,65.5C21,76.822,30.178,86,41.5,86c6.437,0,12.175-2.972,15.934-7.614C59.612,80.611,62.64,82,66,82	c4.65,0,8.674-2.65,10.666-6.518C77.718,75.817,78.837,76,80,76c6.075,0,11-4.925,11-11C91,61.689,89.53,58.727,87.215,56.71z"/><path fill="#fdfcef" d="M76.5,61h3.125v-0.5c1.533,0,4.023,0,5.375,0c2.485,0,4.5-2.015,4.5-4.5	c0-2.333-1.782-4.229-4.055-4.455C85.467,51.364,85.5,51.187,85.5,51c0-2.485-2.015-4.5-4.5-4.5c-1.438,0-2.703,0.686-3.527,1.736	C77.333,45.6,75.171,43.5,72.5,43.5c-2.761,0-5,2.239-5,5c0,0.446,0.077,0.87,0.187,1.282C67.045,49.005,66.086,48.5,65,48.5	c-1.781,0-3.234,1.335-3.455,3.055C61.364,51.533,61.187,51.5,61,51.5c-2.485,0-4.5,2.015-4.5,4.5s2.015,4.5,4.5,4.5s9.5,0,9.5,0h6	V61z"/><path fill="#472b29" d="M72.5,43c-3.033,0-5.5,2.467-5.5,5.5c0,0.016,0,0.031,0,0.047C66.398,48.192,65.71,48,65,48	c-1.831,0-3.411,1.261-3.858,3.005C61.095,51.002,61.048,51,61,51c-2.757,0-5,2.243-5,5s2.243,5,5,5h15.5c0.276,0,0.5-0.224,0.5-0.5	S76.776,60,76.5,60H61c-2.206,0-4-1.794-4-4s1.794-4,4-4c0.117,0,0.23,0.017,0.343,0.032l0.141,0.019	c0.021,0.003,0.041,0.004,0.062,0.004c0.246,0,0.462-0.185,0.495-0.437C62.232,50.125,63.504,49,65,49	c0.885,0,1.723,0.401,2.301,1.1c0.098,0.118,0.241,0.182,0.386,0.182c0.078,0,0.156-0.018,0.228-0.056	c0.209-0.107,0.314-0.346,0.254-0.573C68.054,49.218,68,48.852,68,48.5c0-2.481,2.019-4.5,4.5-4.5c2.381,0,4.347,1.872,4.474,4.263	c0.011,0.208,0.15,0.387,0.349,0.45c0.05,0.016,0.101,0.024,0.152,0.024c0.15,0,0.296-0.069,0.392-0.192	C78.638,47.563,79.779,47,81,47c2.206,0,4,1.794,4,4c0,0.117-0.017,0.23-0.032,0.343l-0.019,0.141	c-0.016,0.134,0.022,0.268,0.106,0.373s0.207,0.172,0.34,0.185C87.451,52.247,89,53.949,89,56c0,2.206-1.794,4-4,4h-5.5	c-0.276,0-0.5,0.224-0.5,0.5s0.224,0.5,0.5,0.5H85c2.757,0,5-2.243,5-5c0-2.397-1.689-4.413-4.003-4.877	C85.999,51.082,86,51.041,86,51c0-2.757-2.243-5-5-5c-1.176,0-2.293,0.416-3.183,1.164C77.219,44.76,75.055,43,72.5,43L72.5,43z"/><path fill="#472b29" d="M71,50c-1.403,0-2.609,0.999-2.913,2.341C67.72,52.119,67.301,52,66.875,52	c-1.202,0-2.198,0.897-2.353,2.068C64.319,54.022,64.126,54,63.937,54c-1.529,0-2.811,1.2-2.918,2.732	C61.01,56.87,61.114,56.99,61.251,57c0.006,0,0.012,0,0.018,0c0.13,0,0.24-0.101,0.249-0.232c0.089-1.271,1.151-2.268,2.419-2.268	c0.229,0,0.47,0.042,0.738,0.127c0.022,0.007,0.045,0.01,0.067,0.01c0.055,0,0.11-0.02,0.156-0.054	C64.962,54.537,65,54.455,65,54.375c0-1.034,0.841-1.875,1.875-1.875c0.447,0,0.885,0.168,1.231,0.473	c0.047,0.041,0.106,0.063,0.165,0.063c0.032,0,0.063-0.006,0.093-0.019c0.088-0.035,0.148-0.117,0.155-0.212	C68.623,51.512,69.712,50.5,71,50.5c0.208,0,0.425,0.034,0.682,0.107c0.023,0.007,0.047,0.01,0.07,0.01	c0.109,0,0.207-0.073,0.239-0.182c0.038-0.133-0.039-0.271-0.172-0.309C71.517,50.04,71.256,50,71,50L71,50z M84.883,51.5	c-1.326,0-2.508,0.897-2.874,2.182c-0.038,0.133,0.039,0.271,0.172,0.309C82.205,53.997,82.228,54,82.25,54	c0.109,0,0.209-0.072,0.24-0.182C82.795,52.748,83.779,52,84.883,52c0.117,0,0.23,0.014,0.342,0.029	c0.012,0.002,0.023,0.003,0.035,0.003c0.121,0,0.229-0.092,0.246-0.217c0.019-0.137-0.077-0.263-0.214-0.281	C85.158,51.516,85.022,51.5,84.883,51.5L84.883,51.5z"/><path fill="#fff" d="M15.5,51h-10C5.224,51,5,50.776,5,50.5S5.224,50,5.5,50h10c0.276,0,0.5,0.224,0.5,0.5	S15.777,51,15.5,51z M18.5,51h-1c-0.276,0-0.5-0.224-0.5-0.5s0.224-0.5,0.5-0.5h1c0.276,0,0.5,0.224,0.5,0.5S18.777,51,18.5,51z M23.491,53H14.5c-0.276,0-0.5-0.224-0.5-0.5s0.224-0.5,0.5-0.5h8.991c0.276,0,0.5,0.224,0.5,0.5S23.767,53,23.491,53z M12.5,53h-1	c-0.276,0-0.5-0.224-0.5-0.5s0.224-0.5,0.5-0.5h1c0.276,0,0.5,0.224,0.5,0.5S12.777,53,12.5,53z M9.5,53h-2	C7.224,53,7,52.776,7,52.5S7.224,52,7.5,52h2c0.276,0,0.5,0.224,0.5,0.5S9.777,53,9.5,53z M15.5,55h-2c-0.276,0-0.5-0.224-0.5-0.5	s0.224-0.5,0.5-0.5h2c0.276,0,0.5,0.224,0.5,0.5S15.776,55,15.5,55z M18.5,46c-0.177,0-0.823,0-1,0c-0.276,0-0.5,0.224-0.5,0.5	s0.224,0.5,0.5,0.5c0.177,0,0.823,0,1,0c0.276,0,0.5-0.224,0.5-0.5S18.776,46,18.5,46z M18.5,48c-0.177,0-4.823,0-5,0	c-0.276,0-0.5,0.224-0.5,0.5s0.224,0.5,0.5,0.5c0.177,0,4.823,0,5,0c0.276,0,0.5-0.224,0.5-0.5S18.776,48,18.5,48z M23.5,50	c-0.177,0-2.823,0-3,0c-0.276,0-0.5,0.224-0.5,0.5s0.224,0.5,0.5,0.5c0.177,0,2.823,0,3,0c0.276,0,0.5-0.224,0.5-0.5	S23.776,50,23.5,50z"/><path fill="#fff" d="M72.5,24h-10c-0.276,0-0.5-0.224-0.5-0.5s0.224-0.5,0.5-0.5h10c0.276,0,0.5,0.224,0.5,0.5 S72.776,24,72.5,24z M76.5,24h-2c-0.276,0-0.5-0.224-0.5-0.5s0.224-0.5,0.5-0.5h2c0.276,0,0.5,0.224,0.5,0.5S76.776,24,76.5,24z M81.5,26h-10c-0.276,0-0.5-0.224-0.5-0.5s0.224-0.5,0.5-0.5h10c0.276,0,0.5,0.224,0.5,0.5S81.777,26,81.5,26z M69.5,26h-1 c-0.276,0-0.5-0.224-0.5-0.5s0.224-0.5,0.5-0.5h1c0.276,0,0.5,0.224,0.5,0.5S69.776,26,69.5,26z M66.47,26H64.5 c-0.276,0-0.5-0.224-0.5-0.5s0.224-0.5,0.5-0.5h1.97c0.276,0,0.5,0.224,0.5,0.5S66.746,26,66.47,26z M75.5,22h-5 c-0.276,0-0.5-0.224-0.5-0.5s0.224-0.5,0.5-0.5h5c0.276,0,0.5,0.224,0.5,0.5S75.777,22,75.5,22z M72.5,28h-2 c-0.276,0-0.5-0.224-0.5-0.5s0.224-0.5,0.5-0.5h2c0.276,0,0.5,0.224,0.5,0.5S72.776,28,72.5,28z"/><path fill="#355ca8" d="M75,50c0,12.707-10.293,23-23,23c-8.188,0-15.364-4.267-19.424-10.706	c-0.333-0.506-0.644-1.024-0.92-1.564C29.955,57.532,29,53.875,29,50c0-12.707,10.293-23,23-23c8.119,0,15.249,4.197,19.331,10.557	c0.402,0.598,0.759,1.231,1.093,1.875C74.069,42.594,75,46.194,75,50z"/><path fill="#fcc938" d="M72.424,39.431c-0.334-0.644-0.69-1.276-1.093-1.875c-3.231,1.288-6.337,2.806-9.407,4.393	c-1.024,0.521-2.035,1.066-3.041,1.622l-15.221-8.235l-1.725,1.15L52,44.25l1.415,2.476c-0.821,0.486-1.64,0.973-2.461,1.457	c-3.611,2.162-7.188,4.393-10.718,6.681c-2.898,1.909-5.773,3.83-8.579,5.865c0.276,0.541,0.587,1.058,0.92,1.564	c3.162-1.426,6.256-2.956,9.338-4.508c3.749-1.932,7.463-3.921,11.132-5.969c0.826-0.468,1.652-0.935,2.476-1.402L56.6,52.3	l2.013,12.938l1.725-0.575l0.76-17.491c0.951-0.576,1.895-1.164,2.828-1.772C66.835,43.525,69.699,41.594,72.424,39.431z"/><path fill="#472b29" d="M67.981,65.98c-8.812,8.812-23.15,8.812-31.961,0.001c-8.812-8.812-8.812-23.15,0-31.962	s23.149-8.811,31.961,0S76.793,57.169,67.981,65.98 M68.971,66.97c9.358-9.358,9.357-24.583,0-33.941	c-9.358-9.358-24.583-9.358-33.941,0s-9.357,24.585,0,33.942S59.613,76.328,68.971,66.97L68.971,66.97z"/><path fill="#472b29" d="M58.612,65.487c-0.045,0-0.091-0.013-0.13-0.036c-0.063-0.039-0.105-0.103-0.117-0.176l-2.006-12.892	l-0.931-1.629l-2.259,1.28c-3.608,2.013-7.356,4.022-11.142,5.973c-2.927,1.475-6.084,3.041-9.35,4.514	c-0.114,0.053-0.244,0.012-0.312-0.09c-0.368-0.561-0.674-1.08-0.934-1.588c-0.056-0.11-0.023-0.244,0.076-0.316	c2.665-1.933,5.36-3.745,8.588-5.872c3.548-2.3,7.157-4.549,10.727-6.688l2.252-1.332l-1.269-2.219l-10.022-7.731	c-0.064-0.05-0.101-0.126-0.098-0.207c0.003-0.08,0.044-0.154,0.111-0.199l1.725-1.149c0.077-0.052,0.177-0.057,0.258-0.012	l15.102,8.169c1.064-0.588,2.023-1.099,2.929-1.56c2.54-1.312,5.908-3,9.427-4.403c0.11-0.041,0.235-0.004,0.3,0.093	c0.369,0.547,0.721,1.15,1.107,1.899c0.056,0.106,0.027,0.237-0.066,0.312c-2.921,2.316-5.945,4.324-8.518,5.982	c-0.81,0.527-1.7,1.086-2.72,1.706l-0.754,17.356c-0.005,0.104-0.072,0.193-0.171,0.227l-1.726,0.575	C58.666,65.483,58.639,65.487,58.612,65.487z M55.522,50.165c0.087,0,0.171,0.045,0.217,0.126l1.077,1.885	c0.016,0.026,0.025,0.056,0.03,0.086l1.967,12.645l1.282-0.427l0.752-17.318c0.004-0.084,0.049-0.159,0.12-0.203	c1.063-0.645,1.986-1.223,2.821-1.768c2.517-1.621,5.464-3.577,8.317-5.826c-0.302-0.575-0.583-1.06-0.871-1.5	c-3.431,1.38-6.71,3.023-9.195,4.308c-0.936,0.477-1.928,1.006-3.035,1.619c-0.075,0.041-0.165,0.043-0.24,0.001l-15.089-8.163	l-1.31,0.873l9.786,7.55c0.026,0.021,0.048,0.046,0.064,0.074l1.415,2.476c0.068,0.118,0.028,0.27-0.09,0.339l-2.462,1.458	c-3.563,2.134-7.167,4.38-10.709,6.676c-3.149,2.075-5.792,3.851-8.394,5.731c0.201,0.377,0.429,0.764,0.691,1.172	c3.187-1.443,6.271-2.974,9.133-4.416c3.777-1.946,7.521-3.953,11.123-5.963l2.475-1.401C55.438,50.176,55.48,50.165,55.522,50.165z"/><path fill="#fdfcef" d="M36.5,73.5c0,0,1.567,0,3.5,0s3.5-1.567,3.5-3.5c0-1.781-1.335-3.234-3.055-3.455 C40.473,66.366,40.5,66.187,40.5,66c0-1.933-1.567-3.5-3.5-3.5c-1.032,0-1.95,0.455-2.59,1.165 c-0.384-1.808-1.987-3.165-3.91-3.165c-2.209,0-4,1.791-4,4c0,0.191,0.03,0.374,0.056,0.558C26.128,64.714,25.592,64.5,25,64.5 c-1.228,0-2.245,0.887-2.455,2.055C22.366,66.527,22.187,66.5,22,66.5c-1.933,0-3.5,1.567-3.5,3.5s1.567,3.5,3.5,3.5s7.5,0,7.5,0 V74h7V73.5z"/><path fill="#472b29" d="M38.25,69C38.112,69,38,68.888,38,68.75c0-1.223,0.995-2.218,2.218-2.218 c0.034,0.009,0.737-0.001,1.244,0.136c0.133,0.036,0.212,0.173,0.176,0.306c-0.036,0.134-0.173,0.213-0.306,0.176 c-0.444-0.12-1.1-0.12-1.113-0.118c-0.948,0-1.719,0.771-1.719,1.718C38.5,68.888,38.388,69,38.25,69z M31.5,73 c-0.276,0-0.5,0.224-0.5,0.5s0.224,0.5,0.5,0.5s0.5-0.224,0.5-0.5S31.776,73,31.5,73z"/><path fill="#472b29" d="M40,74h-3.5c-0.276,0-0.5-0.224-0.5-0.5s0.224-0.5,0.5-0.5H40c1.654,0,3-1.346,3-3 c0-1.496-1.125-2.768-2.618-2.959c-0.134-0.018-0.255-0.088-0.336-0.196s-0.115-0.244-0.094-0.377C39.975,66.314,40,66.16,40,66 c0-1.654-1.346-3-3-3c-0.85,0-1.638,0.355-2.219,1c-0.125,0.139-0.321,0.198-0.5,0.148c-0.182-0.049-0.321-0.195-0.36-0.379 C33.58,62.165,32.141,61,30.5,61c-1.93,0-3.5,1.57-3.5,3.5c0,0.143,0.021,0.28,0.041,0.418c0.029,0.203-0.063,0.438-0.242,0.54 s-0.396,0.118-0.556-0.01C25.878,65.155,25.449,65,25,65c-0.966,0-1.792,0.691-1.963,1.644c-0.048,0.267-0.296,0.446-0.569,0.405 C22.314,67.025,22.16,67,22,67c-1.654,0-3,1.346-3,3s1.346,3,3,3h7.5c0.276,0,0.5,0.224,0.5,0.5S29.776,74,29.5,74H22 c-2.206,0-4-1.794-4-4s1.794-4,4-4c0.059,0,0.116,0.002,0.174,0.006C22.588,64.82,23.711,64,25,64c0.349,0,0.689,0.061,1.011,0.18 C26.176,61.847,28.126,60,30.5,60c1.831,0,3.466,1.127,4.153,2.774C35.333,62.276,36.155,62,37,62c2.206,0,4,1.794,4,4 c0,0.048-0.001,0.095-0.004,0.142C42.739,66.59,44,68.169,44,70C44,72.206,42.206,74,40,74z"/><path fill="#472b29" d="M34.5,73c-0.159,0-0.841,0-1,0c-0.276,0-0.5,0.224-0.5,0.5s0.224,0.5,0.5,0.5c0.159,0,0.841,0,1,0 c0.276,0,0.5-0.224,0.5-0.5S34.776,73,34.5,73z"/></svg>